<svg width="23" height="18" viewBox="0 0 23 18" fill="none" xmlns="http://www.w3.org/2000/svg">
<path d="M2.64097 0.883947C2.35039 1.17452 2.35039 1.64564 2.64097 1.93622L18.4862 17.7814C18.7767 18.072 19.2479 18.072 19.5384 17.7814C19.829 17.4908 19.829 17.0197 19.5384 16.7292L3.69323 0.883947C3.40266 0.593372 2.93154 0.593372 2.64097 0.883947Z" fill="#262626"/>
<path d="M0.333008 9.24093C0.333008 8.61034 1.59634 6.76128 3.63065 5.09596L4.66223 6.17521C4.60127 6.22435 4.5409 6.2738 4.48114 6.32352C3.57772 7.07519 2.85894 7.85303 2.37885 8.4898C2.13766 8.8097 1.97338 9.07195 1.8769 9.25875C1.86061 9.29029 1.84756 9.31713 1.8372 9.3395L1.83907 9.3474C1.85634 9.41926 1.88699 9.51572 1.93773 9.6367C2.04024 9.88116 2.20757 10.1851 2.4501 10.5329C2.93542 11.2291 3.66474 12.0196 4.58771 12.7641C6.44893 14.2656 8.91946 15.4415 11.494 15.4415C12.1182 15.4415 12.7296 15.3685 13.3227 15.2359L14.4945 16.4619C13.5477 16.7572 12.5418 16.9296 11.494 16.9296C5.46693 16.9296 0.333008 11.4731 0.333008 9.24093Z" fill="#262626"/>
<path d="M7.27762 9.73698C7.27762 9.47926 7.30074 9.22694 7.34503 8.98198L12.0607 13.9156C11.8754 13.9405 11.6862 13.9534 11.494 13.9534C9.16535 13.9534 7.27762 12.0656 7.27762 9.73698Z" fill="#262626"/>
<path d="M10.4778 5.64388L15.5371 10.937C15.6498 10.5567 15.7104 10.1539 15.7104 9.73698C15.7104 7.40834 13.8226 5.52061 11.494 5.52061C11.1436 5.52061 10.8032 5.56334 10.4778 5.64388Z" fill="#262626"/>
<path d="M18.1065 12.7095C17.9489 12.8475 17.7863 12.983 17.6191 13.1152L18.6513 14.1952C20.8222 12.4437 22.1589 10.3062 22.1589 9.24093C22.1589 7.50478 17.273 2.0483 11.246 2.0483C9.99806 2.0483 8.79908 2.30348 7.68226 2.71919L8.81761 3.907C9.60264 3.67167 10.4172 3.53643 11.246 3.53643C13.8171 3.53643 16.2267 4.70941 18.0325 6.15524C18.928 6.87217 19.6328 7.62356 20.0998 8.26266C20.3338 8.58284 20.4919 8.85271 20.5858 9.05639C20.6364 9.16621 20.658 9.23436 20.6668 9.26535C20.6589 9.31033 20.6355 9.41525 20.5665 9.58748C20.4717 9.82404 20.3167 10.1232 20.0924 10.4684C19.6437 11.1587 18.9681 11.9554 18.1065 12.7095Z" fill="#262626"/>
</svg>
