<svg width="23" height="15" viewBox="0 0 23 15" fill="none" xmlns="http://www.w3.org/2000/svg">
<path d="M11.3332 3.6543C9.18094 3.6543 7.42988 5.40535 7.42988 7.5576C7.42988 9.70984 9.18094 11.4609 11.3332 11.4609C13.4854 11.4609 15.2365 9.70984 15.2365 7.5576C15.2365 5.40535 13.4854 3.6543 11.3332 3.6543Z" fill="#262626"/>
<path fill-rule="evenodd" clip-rule="evenodd" d="M22.5226 7.11656C22.3201 6.83956 17.4954 0.333984 11.3332 0.333984C5.17109 0.333984 0.3461 6.83956 0.143829 7.11629C-0.0479431 7.37909 -0.0479431 7.73551 0.143829 7.99831C0.3461 8.27531 5.17109 14.7809 11.3332 14.7809C17.4954 14.7809 22.3201 8.27527 22.5226 7.99854C22.7147 7.73578 22.7147 7.37909 22.5226 7.11656ZM11.3332 13.2864C6.79418 13.2864 2.86286 8.96851 1.69913 7.55693C2.86136 6.1441 6.78441 1.82849 11.3332 1.82849C15.8721 1.82849 19.8031 6.14561 20.9674 7.55794C19.8051 8.97072 15.882 13.2864 11.3332 13.2864Z" fill="#262626"/>
</svg>
