<?xml version="1.0" ?><svg fill="none" height="24" viewBox="0 0 24 24" width="24" xmlns="http://www.w3.org/2000/svg"><path clip-rule="evenodd" d="M1 6C1 5.44772 1.44772 5 2 5H22C22.5523 5 23 5.44772 23 6V13C23 13.5043 22.6245 13.9297 22.124 13.9923L14.124 14.9923L13.876 13.0077L21 12.1172V7H3V12.1172L10.124 13.0077L9.87597 14.9923L1.87597 13.9923C1.37554 13.9297 1 13.5043 1 13V6Z" fill="black" fill-rule="evenodd"/><path clip-rule="evenodd" d="M9 11.5C9 10.9477 9.44772 10.5 10 10.5H14C14.5523 10.5 15 10.9477 15 11.5V16.5C15 17.0523 14.5523 17.5 14 17.5H10C9.44772 17.5 9 17.0523 9 16.5V11.5ZM11 12.5V15.5H13V12.5H11Z" fill="black" fill-rule="evenodd"/><path clip-rule="evenodd" d="M8 4.5C8 3.11929 9.11929 2 10.5 2H13.5C14.8807 2 16 3.11929 16 4.5V6H14V4.5C14 4.22386 13.7761 4 13.5 4H10.5C10.2239 4 10 4.22386 10 4.5V6H8V4.5Z" fill="black" fill-rule="evenodd"/><path clip-rule="evenodd" d="M2 21V13.5H4V20H20V13.5H22V21C22 21.5523 21.5523 22 21 22H3C2.44772 22 2 21.5523 2 21Z" fill="black" fill-rule="evenodd"/></svg>