<svg width="20" height="20" viewBox="0 0 20 20" fill="none" xmlns="http://www.w3.org/2000/svg">
<g clip-path="url(#clip0_1198_421)">
<path d="M10 20C15.5228 20 20 15.5228 20 10C20 4.47715 15.5228 0 10 0C4.47715 0 0 4.47715 0 10C0 15.5228 4.47715 20 10 20Z" fill="#F0F0F0"/>
<path d="M2.06808 3.9115C1.28257 4.93349 0.690266 6.11142 0.345383 7.39107H5.54765L2.06808 3.9115Z" fill="#0052B4"/>
<path d="M19.6564 7.39115C19.3115 6.11154 18.7192 4.93361 17.9337 3.91162L14.4542 7.39115H19.6564Z" fill="#0052B4"/>
<path d="M0.345383 12.6085C0.690305 13.8881 1.28261 15.0661 2.06808 16.088L5.54753 12.6085H0.345383Z" fill="#0052B4"/>
<path d="M16.0891 2.06697C15.0671 1.28146 13.8892 0.68916 12.6096 0.344238V5.54646L16.0891 2.06697Z" fill="#0052B4"/>
<path d="M3.91309 17.9326C4.93508 18.7181 6.11301 19.3104 7.39262 19.6553V14.4531L3.91309 17.9326Z" fill="#0052B4"/>
<path d="M7.39258 0.344238C6.11297 0.68916 4.93504 1.28146 3.91309 2.06693L7.39258 5.54643V0.344238Z" fill="#0052B4"/>
<path d="M12.6094 19.6553C13.889 19.3104 15.0669 18.7181 16.0889 17.9326L12.6094 14.4531V19.6553Z" fill="#0052B4"/>
<path d="M14.4542 12.6085L17.9337 16.0881C18.7192 15.0661 19.3115 13.8881 19.6564 12.6085H14.4542Z" fill="#0052B4"/>
<path d="M19.9154 8.69566H11.3044H11.3044V0.0846484C10.8774 0.0290625 10.4421 0 10 0C9.55785 0 9.12262 0.0290625 8.69566 0.0846484V8.69559V8.69563H0.0846484C0.0290625 9.12262 0 9.55793 0 10C0 10.4421 0.0290625 10.8774 0.0846484 11.3043H8.69559H8.69563V19.9154C9.12262 19.9709 9.55785 20 10 20C10.4421 20 10.8774 19.971 11.3043 19.9154V11.3044V11.3044H19.9154C19.9709 10.8774 20 10.4421 20 10C20 9.55793 19.9709 9.12262 19.9154 8.69566Z" fill="#D92D20"/>
<path d="M12.6091 12.6087L17.0714 17.071C17.2766 16.8659 17.4724 16.6514 17.6592 16.429L13.8388 12.6086H12.6091V12.6087Z" fill="#D92D20"/>
<path d="M7.39131 12.6088H7.39123L2.92892 17.0711C3.13408 17.2763 3.34857 17.4721 3.57092 17.6589L7.39131 13.8384V12.6088Z" fill="#D92D20"/>
<path d="M7.39128 7.39142V7.39134L2.92894 2.92896C2.7237 3.13411 2.52792 3.3486 2.34113 3.57095L6.16155 7.39138H7.39128V7.39142Z" fill="#D92D20"/>
<path d="M12.6091 7.3915L17.0714 2.92908C16.8663 2.72385 16.6518 2.52807 16.4294 2.34131L12.6091 6.16174V7.3915Z" fill="#D92D20"/>
</g>
<defs>
<clipPath id="clip0_1198_421">
<rect width="20" height="20" fill="white"/>
</clipPath>
</defs>
</svg>
