<svg width="20" height="20" viewBox="0 0 20 20" fill="none" xmlns="http://www.w3.org/2000/svg">
<g clip-path="url(#clip0_175_2340)">
<path d="M10 20C15.5228 20 20 15.5228 20 10C20 4.47715 15.5228 0 10 0C4.47715 0 0 4.47715 0 10C0 15.5228 4.47715 20 10 20Z" fill="#D80027"/>
<path d="M12.8178 7.80957L13.8106 9.16402L15.4184 8.64788L14.424 10.0012L15.4167 11.3556L13.8095 10.8375L12.8152 12.1907L12.8162 10.5173L11.209 9.99924L12.8168 9.48311L12.8178 7.80957Z" fill="#F0F0F0"/>
<path d="M10.1076 13.3852C8.21917 13.3852 6.68821 11.8694 6.68821 9.99972C6.68821 8.13003 8.21917 6.61428 10.1076 6.61428C10.6964 6.61428 11.2505 6.76173 11.7342 7.0212C10.9754 6.28644 9.93758 5.83301 8.79248 5.83301C6.46815 5.83301 4.58398 7.69849 4.58398 9.99967C4.58398 12.3009 6.4682 14.1663 8.79248 14.1663C9.93768 14.1663 10.9754 13.7129 11.7342 12.9782C11.2505 13.2377 10.6964 13.3852 10.1076 13.3852Z" fill="#F0F0F0"/>
</g>
<defs>
<clipPath id="clip0_175_2340">
<rect width="20" height="20" fill="white"/>
</clipPath>
</defs>
</svg>
